<svg width="174" height="98" viewBox="0 0 174 98" fill="none" xmlns="http://www.w3.org/2000/svg">
<path fill-rule="evenodd" clip-rule="evenodd" d="M34.618 23.6753C34.5147 23.7785 34.4295 23.9722 34.4287 24.1055C34.4277 24.2473 34.0521 24.5225 33.5247 24.7678C32.435 25.2745 31.968 25.9801 31.879 27.2537C31.8463 27.7207 31.7615 28.2375 31.6904 28.4019C31.5812 28.6547 31.6136 28.6871 31.9006 28.612C32.0872 28.5632 32.2399 28.5871 32.2399 28.6652C32.2399 28.7431 32.3289 28.8069 32.4377 28.8069C32.5464 28.8069 32.7574 29.0886 32.9065 29.4328C33.167 30.034 33.3312 30.1277 34.0765 30.1008C34.1832 30.0971 34.2353 30.1509 34.1923 30.2203C34.1493 30.29 34.3106 30.445 34.5507 30.5647C35.0198 30.7988 35.7997 30.6872 36.0037 30.3569C36.1725 30.0839 36.8988 30.3172 37.2971 30.7722C37.4844 30.986 37.9267 31.4585 38.2803 31.8223C38.6337 32.186 39.144 32.9207 39.4145 33.455C40.044 34.6987 40.0594 35.5024 39.4759 36.6478C38.7521 38.0685 38.6137 38.2095 38.0525 38.0972C37.63 38.0127 37.5593 38.0436 37.5593 38.3134C37.5593 38.8744 36.7431 38.8398 35.4395 38.2236C34.8042 37.9233 34.3185 37.6226 34.3602 37.5552C34.4018 37.4879 34.2217 37.3064 33.9601 37.1519C33.554 36.912 33.525 36.856 33.7617 36.769C33.9664 36.6938 33.8878 36.6376 33.4624 36.5545C33.1453 36.4927 32.6109 36.2067 32.2748 35.9192C31.9259 35.6205 31.3007 35.2976 30.8176 35.1666C30.0154 34.949 29.9998 34.9355 30.5189 34.9071C30.9792 34.882 30.9044 34.8415 30.0496 34.6531C29.2983 34.4876 28.9355 34.4728 28.6604 34.5965C28.1231 34.8381 28.0881 34.7013 28.4637 33.8283C28.6476 33.401 28.7979 32.8619 28.7979 32.6302V32.209L28.0973 32.8549C27.2831 33.6052 27.1187 33.6429 26.9848 33.1094C26.9308 32.8943 26.8344 32.7183 26.7709 32.7183C26.7072 32.7183 26.2463 33.147 25.7466 33.6709C25.2469 34.1947 24.5671 34.8027 24.2361 35.0219C23.6393 35.4166 23.1174 36.0545 21.7575 38.0512C21.331 38.6773 20.9703 39.0562 20.8424 39.0124C20.1644 38.7799 19.2755 40.0085 19.567 40.7752C19.7039 41.1355 19.6161 41.3243 18.7837 42.4583C18.2681 43.1608 17.8462 43.8507 17.8462 43.9914C17.8462 44.1322 17.9928 44.38 18.1721 44.5422C18.3512 44.7043 18.594 45.0673 18.7117 45.3488C18.8439 45.6653 19.0357 45.8604 19.215 45.8604C19.3743 45.8604 19.5792 45.935 19.6704 46.0262C19.9544 46.3102 21.3096 46.1382 21.5069 45.7932C21.6017 45.6273 21.8503 45.2917 22.0593 45.0476L22.4393 44.6039L22.8502 44.9975C23.0761 45.2139 23.3404 45.391 23.4374 45.391C23.6744 45.391 23.8363 44.8401 23.7132 44.4523C23.6456 44.239 23.685 44.1394 23.8373 44.1394C23.9601 44.1394 24.3004 43.9768 24.5932 43.778C24.9781 43.5169 25.5329 43.3665 26.5943 43.2357C27.4021 43.1364 28.1247 43.0932 28.2001 43.1398C28.2755 43.1864 28.6485 43.8704 29.0289 44.6597C29.7678 46.1936 30.5914 47.7231 31.026 48.3689C31.3361 48.8295 31.6066 50.4975 31.611 51.9763C31.6149 53.2813 31.9325 54.3425 32.5481 55.1086L33.0305 55.7088L31.9642 56.2457C31.378 56.541 30.3349 56.9998 29.6465 57.2654C28.1327 57.8491 27.3445 58.5782 27.0018 59.7113C26.8726 60.1389 26.2412 61.3292 25.5988 62.3565C24.8744 63.5147 24.3692 64.5101 24.2692 64.9766C24.1804 65.3906 23.8958 66.1966 23.6367 66.7682C23.103 67.9452 22.9868 69.2695 23.4031 69.4293C23.7581 69.5656 24.4754 69.2146 25.1896 68.5553C25.7117 68.0731 25.8253 67.8654 25.8253 67.3918C25.8253 67.0237 25.7405 66.7827 25.5906 66.7253C25.25 66.5945 25.3028 66.1322 25.7163 65.6246C25.9143 65.3814 26.5078 64.3023 27.0349 63.2267C27.8947 61.4722 28.794 60.0981 29.0831 60.0973C29.1413 60.0972 29.1661 60.5028 29.1379 60.9988L29.0867 61.9004L31.3702 64.1945C33.556 66.3906 33.6735 66.4831 34.1152 66.3564C34.3689 66.2836 34.6451 66.1816 34.7291 66.1298C34.8129 66.0781 35.2839 65.9612 35.7754 65.8703C36.7397 65.6921 38.2569 64.9247 38.4042 64.5409C38.5367 64.1958 37.8436 63.5778 37.1857 63.4543C36.1043 63.2514 35.138 63.6849 34.8683 64.4938C34.7823 64.752 33.1553 63.9361 32.3673 63.2397C31.5085 62.4809 30.9199 61.5968 31.0491 61.2599C31.2014 60.863 32.0744 60.6105 33.9039 60.434C34.8622 60.3415 36.2703 60.1175 37.033 59.9362C37.7957 59.7548 38.5847 59.5732 38.7862 59.5325C39.0303 59.4832 39.2393 59.2543 39.412 58.8469C39.637 58.3166 39.7223 58.248 40.0549 58.3308C40.5781 58.4611 41.3206 58.447 43.9739 58.2568C46.101 58.1043 46.4057 58.0395 48.8576 57.2184C50.2959 56.7368 51.4934 56.3427 51.5187 56.3427C51.5439 56.3427 51.5641 57.4165 51.5633 58.7287C51.5613 62.2753 51.785 61.9988 47.103 64.2399C45.9413 64.7959 44.3927 65.5951 43.6616 66.0156C42.5323 66.6654 42.2751 66.8919 41.951 67.5218C41.4506 68.4939 41.6116 68.791 42.6196 68.7561C44.0075 68.708 44.9126 68.2251 44.9126 67.5328C44.9126 67.0916 45.3493 66.8716 50.8441 64.5454C52.9448 63.6562 54.723 62.8371 54.7959 62.7256C54.9699 62.459 55.0187 62.1894 55.2257 60.3495C55.4182 58.6382 55.7462 57.7421 56.426 57.0701C56.8716 56.6298 57.8942 56.0298 58.1994 56.0298C58.4585 56.0298 58.6448 56.5227 58.9122 57.9156C59.0516 58.6425 59.3794 60.2372 59.6405 61.4594C59.9709 63.0067 60.1226 64.1709 60.1399 65.2925C60.1628 66.7754 60.1246 67.0028 59.6596 68.155C59.3819 68.8434 58.8543 69.9287 58.4873 70.567C57.839 71.6944 57.7934 71.736 56.8813 72.0324C55.3651 72.5249 54.9566 72.7342 54.6764 73.1616C54.3139 73.7149 54.5634 74.2546 55.2446 74.3909C56.2467 74.5913 57.2095 74.5073 57.4926 74.1945C57.6403 74.0314 58.0606 73.8223 58.4268 73.7302C59.2793 73.5155 59.4888 73.2693 60.073 71.7955C60.5418 70.6125 61.6375 68.3907 62.9098 66.0429C63.6105 64.7496 63.6199 64.6135 63.1541 62.5227C62.8646 61.2228 62.8289 58.641 63.0902 57.8915C63.192 57.5991 63.6479 56.908 64.1032 56.356C65.0918 55.1575 66.056 53.2473 66.5411 51.5268L66.8943 50.2736L67.3937 50.3545C67.681 50.4011 68.2261 50.3157 68.6773 50.1534C69.6254 49.8125 69.7192 49.8465 71.4349 51.1505C72.8715 52.2424 73.6495 52.9767 74.6322 54.1679C76.2474 56.1259 78.5967 57.8298 80.3271 58.2983C81.2675 58.5528 81.3746 58.553 82.2443 58.3006C82.9893 58.0845 83.3424 57.8567 84.0906 57.1094C84.5995 56.601 84.98 56.1495 84.9364 56.1059C84.8927 56.0622 84.5556 56.1328 84.1871 56.2628C83.3168 56.5699 82.8662 56.5641 83.4393 56.2533C84.1166 55.8857 83.9462 55.8638 82.9845 56.1947C81.833 56.5909 81.7278 56.5788 82.2571 56.1118L82.6961 55.7244L82.0501 55.9716C81.4543 56.1996 81.3603 56.1982 80.8414 55.9519C80.2279 55.6608 78.9616 54.3766 77.1584 52.2169C76.5222 51.4548 75.6773 50.6191 75.281 50.3598C74.8847 50.1006 74.6748 49.9269 74.8143 49.9738C74.9539 50.0209 75.4115 50.1095 75.8313 50.1705C76.7445 50.3035 77.2544 50.5466 78.0358 51.2219L78.6211 51.7274L78.2619 51.258C77.8323 50.6965 76.8438 49.8883 75.9295 49.3507C75.5639 49.1356 75.2646 48.933 75.2646 48.9003C75.2646 48.7188 77.1575 49.6479 77.9243 50.2059L78.4719 50.6043L77.9243 50.0223C77.1628 49.2132 75.7246 48.547 74.158 48.2779C72.5282 47.998 71.2199 47.5243 70.2682 46.8696C69.1706 46.1146 68.4438 45.7875 66.8724 45.3414C66.0858 45.1182 65.1783 44.7564 64.8557 44.5374C64.5331 44.3185 64.2093 44.1394 64.1362 44.1394C64.063 44.1394 63.5149 43.8265 62.9184 43.4441C60.4703 41.8749 59.1982 41.5039 57.2124 41.7802C56.5819 41.8678 55.8725 42.0132 55.6361 42.103C55.3997 42.1929 54.5337 42.3675 53.7117 42.491C52.305 42.7024 52.1955 42.6986 51.852 42.4284C51.5222 42.1688 51.511 42.1211 51.7374 41.9332C52.1469 41.5934 52.2464 41.1258 51.9918 40.7373C51.8646 40.5433 51.642 40.3845 51.4971 40.3845C51.3521 40.3845 50.6484 40.7717 49.9332 41.245C49.2179 41.7183 48.5463 42.1055 48.4405 42.1055C48.3347 42.1055 48.1548 41.8063 48.0406 41.4406C47.9264 41.0748 47.6967 40.5444 47.5301 40.2618C47.3636 39.9793 47.1976 39.4297 47.1613 39.0406C47.1027 38.4127 47.1914 38.1624 47.9495 36.8164C48.4195 35.9822 49.0499 34.7365 49.3506 34.0481C49.6511 33.3597 50.0071 32.5853 50.1418 32.3272C50.4869 31.6654 50.4531 30.4474 50.0676 29.6509C49.8911 29.2863 49.4296 28.7281 49.0421 28.4107C48.4125 27.8947 48.3485 27.7831 48.4408 27.3627C48.5799 26.7294 48.2653 26.1878 47.5445 25.8201C46.8885 25.4854 46.1948 25.4504 44.6418 25.6735C44.0593 25.7572 42.8787 25.8957 42.0182 25.9812C41.1577 26.0668 39.7734 26.3416 38.9421 26.5917L37.4304 27.0467L37.1801 26.3912C37.0422 26.0305 36.6841 25.4975 36.384 25.2066C36.0838 24.9158 35.8383 24.5237 35.8383 24.3354C35.8383 24.144 35.6681 23.8813 35.4527 23.7402C34.9916 23.4381 34.865 23.4282 34.618 23.6753ZM42.42 33.4927C42.4119 33.9042 42.4529 33.989 42.592 33.8499C42.7271 33.7147 42.7298 33.5741 42.6026 33.3101C42.441 32.9747 42.4299 32.9858 42.42 33.4927ZM42.1098 35.7912C41.9882 36.1274 41.4522 36.8246 40.8686 37.4052C40.0547 38.2151 39.9013 38.4387 40.1289 38.4825C40.6294 38.5789 41.217 37.9778 41.8355 36.7366C42.1653 36.0748 42.41 35.4583 42.3795 35.3664C42.3488 35.2746 42.2274 35.4658 42.1098 35.7912ZM42.2891 38.2976C41.8591 38.8319 41.8508 38.9764 42.2499 38.9764C42.4486 38.9764 42.5945 38.8384 42.6564 38.592C42.8151 37.9599 42.6605 37.836 42.2891 38.2976ZM37.442 39.1515C36.8349 39.3267 36.799 39.4907 37.3162 39.7263C37.6277 39.8684 37.7633 39.8486 38.0451 39.6204C38.2407 39.462 38.3425 39.2609 38.279 39.1582C38.1513 38.9515 38.1346 38.9514 37.442 39.1515ZM40.9166 39.6127C40.7675 39.8538 40.8675 39.8981 41.3514 39.8052C41.5871 39.7599 41.7413 39.6606 41.6942 39.5844C41.575 39.3913 41.0413 39.4107 40.9166 39.6127ZM39.5932 39.9934C39.4846 40.1243 39.4676 40.228 39.5549 40.228C39.6409 40.228 39.7989 40.1224 39.9061 39.9934C40.0147 39.8624 40.0317 39.7587 39.9444 39.7587C39.8584 39.7587 39.7004 39.8643 39.5932 39.9934ZM40.715 40.4189C39.6916 40.6766 39.5187 40.6832 39.1107 40.4796C38.7025 40.2761 38.626 40.2789 38.3979 40.507C38.1613 40.7434 38.1751 40.7714 38.581 40.8798C38.8221 40.9444 39.3138 40.9568 39.6735 40.9075C40.1489 40.8424 40.5301 40.9075 41.0701 41.1464C41.9478 41.5347 42.3379 41.4118 42.4402 40.7145C42.5302 40.1018 42.1994 40.0452 40.715 40.4189ZM44.8407 41.3623C44.971 41.7968 45.3386 42.2009 45.4776 42.0621C45.6436 41.896 45.2089 41.0103 44.9613 41.0103C44.7997 41.0103 44.7652 41.1109 44.8407 41.3623ZM26.8423 42.7313C26.5924 42.8386 26.6494 42.868 27.1253 42.8768C27.4851 42.8834 27.6829 42.8258 27.6245 42.7313C27.5103 42.5465 27.2722 42.5465 26.8423 42.7313ZM23.0092 44.5213C23.0092 44.6554 23.0796 44.7652 23.1656 44.7652C23.2517 44.7652 23.3221 44.699 23.3221 44.618C23.3221 44.5369 23.2517 44.4273 23.1656 44.3741C23.0796 44.3209 23.0092 44.3872 23.0092 44.5213Z" fill="#579C4C"/>
<path d="M77.6089 46.6785L73.3888 31.9296H76.7951L79.2365 42.1775H79.3589L82.0523 31.9296H84.9689L87.6551 42.1991H87.7848L90.2261 31.9296H93.6325L89.4123 46.6785H86.3733L83.5646 37.0355H83.4494L80.648 46.6785H77.6089ZM97.2099 46.8873C96.5041 46.8873 95.8752 46.7649 95.3231 46.52C94.7709 46.2704 94.334 45.9031 94.0124 45.4182C93.6955 44.9285 93.5371 44.3187 93.5371 43.589C93.5371 42.9744 93.6499 42.4583 93.8755 42.0406C94.1012 41.6229 94.4085 41.2869 94.7973 41.0324C95.1862 40.778 95.6279 40.5859 96.1224 40.4563C96.6217 40.3267 97.1451 40.2354 97.6924 40.1826C98.3357 40.1154 98.8542 40.053 99.2479 39.9954C99.6416 39.933 99.9273 39.8417 100.105 39.7217C100.283 39.6017 100.371 39.424 100.371 39.1888V39.1456C100.371 38.6895 100.227 38.3366 99.9393 38.087C99.656 37.8373 99.2527 37.7125 98.7294 37.7125C98.1773 37.7125 97.738 37.8349 97.4115 38.0798C97.085 38.3198 96.869 38.6223 96.7634 38.9872L93.9259 38.7567C94.07 38.0846 94.3532 37.5036 94.7757 37.0139C95.1982 36.5194 95.7431 36.1401 96.4105 35.8761C97.0826 35.6072 97.8604 35.4728 98.7438 35.4728C99.3584 35.4728 99.9465 35.5448 100.508 35.6888C101.075 35.8328 101.576 36.0561 102.013 36.3586C102.455 36.661 102.803 37.0499 103.058 37.5252C103.312 37.9957 103.439 38.5599 103.439 39.2176V46.6785H100.53V45.1445H100.443C100.266 45.4902 100.028 45.7951 99.7304 46.0591C99.4328 46.3184 99.0751 46.5224 98.6574 46.6713C98.2397 46.8153 97.7572 46.8873 97.2099 46.8873ZM98.0885 44.77C98.5398 44.77 98.9383 44.6812 99.2839 44.5036C99.6296 44.3211 99.9009 44.0763 100.098 43.769C100.295 43.4617 100.393 43.1137 100.393 42.7248V41.5509C100.297 41.6133 100.165 41.671 99.9969 41.7238C99.8337 41.7718 99.6488 41.8174 99.4424 41.8606C99.2359 41.899 99.0295 41.935 98.823 41.9686C98.6166 41.9974 98.4293 42.0238 98.2613 42.0478C97.9012 42.1006 97.5868 42.1847 97.3179 42.2999C97.049 42.4151 96.8402 42.5712 96.6914 42.768C96.5425 42.96 96.4681 43.2001 96.4681 43.4882C96.4681 43.9058 96.6193 44.2251 96.9218 44.446C97.2291 44.662 97.618 44.77 98.0885 44.77ZM111.703 35.6168V37.9213H105.042V35.6168H111.703ZM106.554 32.9666H109.622V43.2793C109.622 43.5626 109.665 43.7834 109.751 43.9419C109.838 44.0955 109.958 44.2035 110.112 44.2659C110.27 44.3283 110.452 44.3595 110.659 44.3595C110.803 44.3595 110.947 44.3475 111.091 44.3235C111.235 44.2947 111.345 44.2731 111.422 44.2587L111.905 46.5416C111.751 46.5896 111.535 46.6449 111.257 46.7073C110.978 46.7745 110.64 46.8153 110.241 46.8297C109.502 46.8585 108.854 46.7601 108.297 46.5344C107.745 46.3088 107.315 45.9583 107.008 45.483C106.7 45.0077 106.549 44.4076 106.554 43.6826V32.9666ZM118.581 46.8945C117.448 46.8945 116.473 46.6545 115.657 46.1744C114.845 45.6894 114.221 45.0173 113.784 44.1579C113.352 43.2985 113.136 42.3095 113.136 41.1908C113.136 40.0578 113.355 39.064 113.792 38.2094C114.233 37.35 114.86 36.6802 115.671 36.2001C116.483 35.7152 117.448 35.4728 118.566 35.4728C119.531 35.4728 120.376 35.648 121.101 35.9985C121.826 36.349 122.4 36.8411 122.822 37.4748C123.245 38.1086 123.478 38.8527 123.521 39.7073H120.626C120.544 39.1552 120.328 38.7111 119.978 38.375C119.632 38.0341 119.178 37.8637 118.617 37.8637C118.141 37.8637 117.726 37.9933 117.371 38.2526C117.02 38.507 116.747 38.8791 116.55 39.3688C116.353 39.8585 116.255 40.4515 116.255 41.1476C116.255 41.8534 116.351 42.4535 116.543 42.948C116.739 43.4425 117.015 43.8194 117.371 44.0787C117.726 44.3379 118.141 44.4676 118.617 44.4676C118.967 44.4676 119.282 44.3956 119.56 44.2515C119.843 44.1075 120.076 43.8986 120.259 43.625C120.446 43.3465 120.568 43.0128 120.626 42.624H123.521C123.473 43.469 123.242 44.2131 122.83 44.8565C122.421 45.495 121.857 45.9943 121.137 46.3544C120.417 46.7145 119.565 46.8945 118.581 46.8945ZM128.553 40.2834V46.6785H125.485V31.9296H128.467V37.5684H128.596C128.846 36.9155 129.249 36.4042 129.806 36.0345C130.363 35.66 131.062 35.4728 131.902 35.4728C132.67 35.4728 133.34 35.6408 133.911 35.9769C134.487 36.3082 134.934 36.7859 135.251 37.41C135.572 38.0293 135.731 38.7711 135.726 39.6353V46.6785H132.658V40.1826C132.663 39.5009 132.49 38.9703 132.139 38.5911C131.794 38.2118 131.309 38.0221 130.685 38.0221C130.267 38.0221 129.897 38.111 129.576 38.2886C129.259 38.4662 129.009 38.7255 128.827 39.0664C128.649 39.4024 128.558 39.8081 128.553 40.2834ZM74.289 49.9296H78.1346L82.1963 59.839H82.3692L86.4309 49.9296H90.2765V64.6785H87.2519V55.0787H87.1294L83.3126 64.6065H81.2529L77.4361 55.0427H77.3136V64.6785H74.289V49.9296ZM97.8292 64.8945C96.6914 64.8945 95.7119 64.6641 94.891 64.2032C94.0748 63.7375 93.4458 63.0797 93.0041 62.2299C92.5624 61.3753 92.3416 60.3647 92.3416 59.198C92.3416 58.0602 92.5624 57.0616 93.0041 56.2022C93.4458 55.3428 94.0676 54.673 94.8694 54.1929C95.6759 53.7128 96.6217 53.4728 97.7068 53.4728C98.4365 53.4728 99.1159 53.5904 99.7448 53.8256C100.379 54.0561 100.931 54.4042 101.401 54.8699C101.877 55.3356 102.246 55.9213 102.51 56.6271C102.774 57.328 102.906 58.149 102.906 59.09V59.9326H93.5659V58.0314H100.019C100.019 57.5897 99.9225 57.1984 99.7304 56.8575C99.5384 56.5166 99.2719 56.2502 98.9311 56.0581C98.595 55.8613 98.2037 55.7629 97.7572 55.7629C97.2915 55.7629 96.8786 55.8709 96.5185 56.087C96.1632 56.2982 95.8848 56.5839 95.6831 56.9439C95.4815 57.2992 95.3783 57.6953 95.3735 58.1322V59.9398C95.3735 60.4871 95.4743 60.96 95.6759 61.3585C95.8824 61.757 96.1728 62.0643 96.5473 62.2803C96.9218 62.4964 97.3659 62.6044 97.8796 62.6044C98.2205 62.6044 98.5326 62.5564 98.8158 62.4604C99.0991 62.3644 99.3415 62.2203 99.5432 62.0283C99.7448 61.8362 99.8985 61.601 100.004 61.3225L102.842 61.5098C102.697 62.1915 102.402 62.7868 101.956 63.2958C101.514 63.7999 100.943 64.1936 100.242 64.4768C99.5456 64.7553 98.7414 64.8945 97.8292 64.8945ZM104.966 64.6785V49.9296H110.785C111.899 49.9296 112.849 50.1288 113.637 50.5273C114.429 50.921 115.031 51.4803 115.444 52.2053C115.862 52.9254 116.071 53.7728 116.071 54.7475C116.071 55.7269 115.86 56.5695 115.437 57.2752C115.015 57.9762 114.403 58.5139 113.601 58.8884C112.804 59.2629 111.839 59.4501 110.706 59.4501H106.81V56.9439H110.202C110.797 56.9439 111.291 56.8623 111.685 56.6991C112.079 56.5359 112.372 56.291 112.564 55.9645C112.761 55.6381 112.859 55.2324 112.859 54.7475C112.859 54.2577 112.761 53.8449 112.564 53.5088C112.372 53.1727 112.076 52.9182 111.678 52.7454C111.284 52.5678 110.787 52.4789 110.187 52.4789H108.084V64.6785H104.966ZM112.931 57.9666L116.597 64.6785H113.154L109.568 57.9666H112.931ZM118.217 64.6785V53.6168H121.285V64.6785H118.217ZM119.758 52.1909C119.302 52.1909 118.911 52.0396 118.584 51.7372C118.263 51.4299 118.102 51.0626 118.102 50.6353C118.102 50.2128 118.263 49.8504 118.584 49.5479C118.911 49.2406 119.302 49.087 119.758 49.087C120.214 49.087 120.603 49.2406 120.925 49.5479C121.251 49.8504 121.414 50.2128 121.414 50.6353C121.414 51.0626 121.251 51.4299 120.925 51.7372C120.603 52.0396 120.214 52.1909 119.758 52.1909ZM127.818 64.8585C126.978 64.8585 126.217 64.6425 125.536 64.2104C124.859 63.7735 124.321 63.1325 123.922 62.2875C123.529 61.4377 123.332 60.3959 123.332 59.162C123.332 57.8946 123.536 56.8407 123.944 56.0005C124.352 55.1555 124.895 54.5242 125.572 54.1065C126.253 53.684 127 53.4728 127.811 53.4728C128.431 53.4728 128.947 53.5784 129.36 53.7896C129.777 53.9961 130.113 54.2553 130.368 54.5674C130.627 54.8747 130.824 55.1771 130.958 55.4748H131.052V49.9296H134.113V64.6785H131.088V62.9069H130.958C130.814 63.2141 130.61 63.519 130.346 63.8215C130.087 64.1191 129.749 64.3664 129.331 64.5632C128.918 64.7601 128.414 64.8585 127.818 64.8585ZM128.791 62.4172C129.285 62.4172 129.703 62.2827 130.044 62.0139C130.389 61.7402 130.654 61.3585 130.836 60.8688C131.023 60.3791 131.117 59.8054 131.117 59.1476C131.117 58.4899 131.026 57.9186 130.843 57.4337C130.661 56.9487 130.397 56.5743 130.051 56.3102C129.705 56.0461 129.285 55.9141 128.791 55.9141C128.287 55.9141 127.862 56.0509 127.516 56.3246C127.17 56.5983 126.909 56.9776 126.731 57.4625C126.553 57.9474 126.465 58.5091 126.465 59.1476C126.465 59.791 126.553 60.3599 126.731 60.8544C126.913 61.3441 127.175 61.7282 127.516 62.0067C127.862 62.2803 128.287 62.4172 128.791 62.4172ZM141.676 64.8945C140.538 64.8945 139.559 64.6641 138.738 64.2032C137.922 63.7375 137.293 63.0797 136.851 62.2299C136.409 61.3753 136.189 60.3647 136.189 59.198C136.189 58.0602 136.409 57.0616 136.851 56.2022C137.293 55.3428 137.915 54.673 138.716 54.1929C139.523 53.7128 140.469 53.4728 141.554 53.4728C142.284 53.4728 142.963 53.5904 143.592 53.8256C144.226 54.0561 144.778 54.4042 145.248 54.8699C145.723 55.3356 146.093 55.9213 146.357 56.6271C146.621 57.328 146.753 58.149 146.753 59.09V59.9326H137.413V58.0314H143.865C143.865 57.5897 143.769 57.1984 143.577 56.8575C143.385 56.5166 143.119 56.2502 142.778 56.0581C142.442 55.8613 142.051 55.7629 141.604 55.7629C141.138 55.7629 140.726 55.8709 140.365 56.087C140.01 56.2982 139.732 56.5839 139.53 56.9439C139.328 57.2992 139.225 57.6953 139.22 58.1322V59.9398C139.22 60.4871 139.321 60.96 139.523 61.3585C139.729 61.757 140.02 62.0643 140.394 62.2803C140.769 62.4964 141.213 62.6044 141.727 62.6044C142.067 62.6044 142.38 62.5564 142.663 62.4604C142.946 62.3644 143.189 62.2203 143.39 62.0283C143.592 61.8362 143.745 61.601 143.851 61.3225L146.689 61.5098C146.544 62.1915 146.249 62.7868 145.803 63.2958C145.361 63.7999 144.79 64.1936 144.089 64.4768C143.393 64.7553 142.588 64.8945 141.676 64.8945Z" fill="black"/>
</svg>
