<svg width="174" height="98" viewBox="0 0 174 98" fill="none" xmlns="http://www.w3.org/2000/svg">
<rect width="174" height="98" fill="white"/>
<path fill-rule="evenodd" clip-rule="evenodd" d="M34.618 23.6749C34.5147 23.7782 34.4295 23.9719 34.4287 24.1052C34.4277 24.2469 34.0521 24.5221 33.5247 24.7674C32.435 25.2742 31.968 25.9798 31.879 27.2533C31.8463 27.7203 31.7615 28.2371 31.6904 28.4015C31.5812 28.6544 31.6136 28.6867 31.9006 28.6116C32.0872 28.5628 32.2399 28.5868 32.2399 28.6648C32.2399 28.7428 32.3289 28.8066 32.4377 28.8066C32.5464 28.8066 32.7574 29.0882 32.9065 29.4324C33.167 30.0336 33.3312 30.1274 34.0765 30.1005C34.1832 30.0967 34.2353 30.1505 34.1923 30.22C34.1493 30.2896 34.3106 30.4446 34.5507 30.5643C35.0198 30.7984 35.7997 30.6868 36.0037 30.3566C36.1725 30.0836 36.8988 30.3168 37.2971 30.7718C37.4844 30.9857 37.9267 31.4582 38.2803 31.8219C38.6337 32.1857 39.144 32.9204 39.4145 33.4547C40.044 34.6983 40.0594 35.502 39.4759 36.6474C38.7521 38.0682 38.6137 38.2091 38.0525 38.0968C37.63 38.0123 37.5593 38.0433 37.5593 38.313C37.5593 38.874 36.7431 38.8395 35.4395 38.2232C34.8042 37.923 34.3185 37.6223 34.3602 37.5548C34.4018 37.4876 34.2217 37.3061 33.9601 37.1515C33.554 36.9116 33.525 36.8556 33.7617 36.7687C33.9664 36.6934 33.8878 36.6372 33.4624 36.5542C33.1453 36.4924 32.6109 36.2064 32.2748 35.9188C31.9259 35.6201 31.3007 35.2972 30.8176 35.1663C30.0154 34.9486 29.9998 34.9352 30.5189 34.9067C30.9792 34.8817 30.9044 34.8411 30.0496 34.6528C29.2983 34.4872 28.9355 34.4724 28.6604 34.5961C28.1231 34.8377 28.0881 34.701 28.4637 33.828C28.6476 33.4007 28.7979 32.8615 28.7979 32.6298V32.2087L28.0973 32.8545C27.2831 33.6049 27.1187 33.6426 26.9848 33.1091C26.9308 32.8939 26.8344 32.7179 26.7709 32.7179C26.7072 32.7179 26.2463 33.1466 25.7466 33.6706C25.2469 34.1944 24.5671 34.8023 24.2361 35.0215C23.6393 35.4163 23.1174 36.0541 21.7575 38.0508C21.331 38.6769 20.9703 39.0558 20.8424 39.012C20.1644 38.7795 19.2755 40.0082 19.567 40.7748C19.7039 41.1351 19.6161 41.3239 18.7837 42.4579C18.2681 43.1604 17.8462 43.8504 17.8462 43.991C17.8462 44.1318 17.9928 44.3796 18.1721 44.5419C18.3512 44.704 18.594 45.0669 18.7117 45.3484C18.8439 45.6649 19.0357 45.86 19.215 45.86C19.3743 45.86 19.5792 45.9346 19.6704 46.0258C19.9544 46.3098 21.3096 46.1379 21.5069 45.7929C21.6017 45.6269 21.8503 45.2913 22.0593 45.0472L22.4393 44.6035L22.8502 44.9972C23.0761 45.2135 23.3404 45.3906 23.4374 45.3906C23.6744 45.3906 23.8363 44.8398 23.7132 44.4519C23.6456 44.2387 23.685 44.139 23.8373 44.139C23.9601 44.139 24.3004 43.9765 24.5932 43.7776C24.9781 43.5165 25.5329 43.3661 26.5943 43.2353C27.4021 43.136 28.1247 43.0928 28.2001 43.1394C28.2755 43.1861 28.6485 43.8701 29.0289 44.6594C29.7678 46.1932 30.5914 47.7227 31.026 48.3686C31.3361 48.8292 31.6066 50.4971 31.611 51.9759C31.6149 53.2809 31.9325 54.3421 32.5481 55.1083L33.0305 55.7084L31.9642 56.2454C31.378 56.5406 30.3349 56.9995 29.6465 57.265C28.1327 57.8487 27.3445 58.5778 27.0018 59.711C26.8726 60.1386 26.2412 61.3289 25.5988 62.3561C24.8744 63.5144 24.3692 64.5097 24.2692 64.9763C24.1804 65.3902 23.8958 66.1963 23.6367 66.7678C23.103 67.9448 22.9868 69.2692 23.4031 69.4289C23.7581 69.5652 24.4754 69.2143 25.1896 68.555C25.7117 68.0728 25.8253 67.865 25.8253 67.3914C25.8253 67.0233 25.7405 66.7824 25.5906 66.7249C25.25 66.5941 25.3028 66.1318 25.7163 65.6243C25.9143 65.381 26.5078 64.3019 27.0349 63.2263C27.8947 61.4719 28.794 60.0977 29.0831 60.0969C29.1413 60.0968 29.1661 60.5025 29.1379 60.9984L29.0867 61.9001L31.3702 64.1941C33.556 66.3903 33.6735 66.4827 34.1152 66.356C34.3689 66.2833 34.6451 66.1813 34.7291 66.1295C34.8129 66.0777 35.2839 65.9608 35.7754 65.8699C36.7397 65.6917 38.2569 64.9243 38.4042 64.5405C38.5367 64.1954 37.8436 63.5774 37.1857 63.454C36.1043 63.251 35.138 63.6846 34.8683 64.4934C34.7823 64.7516 33.1553 63.9357 32.3673 63.2393C31.5085 62.4805 30.9199 61.5964 31.0491 61.2595C31.2014 60.8626 32.0744 60.6101 33.9039 60.4336C34.8622 60.3412 36.2703 60.1171 37.033 59.9358C37.7957 59.7545 38.5847 59.5728 38.7862 59.5322C39.0303 59.4829 39.2393 59.254 39.412 58.8466C39.637 58.3162 39.7223 58.2477 40.0549 58.3304C40.5781 58.4608 41.3206 58.4467 43.9739 58.2564C46.101 58.1039 46.4057 58.0391 48.8576 57.218C50.2959 56.7365 51.4934 56.3424 51.5187 56.3424C51.5439 56.3424 51.5641 57.4161 51.5633 58.7283C51.5613 62.2749 51.785 61.9985 47.103 64.2395C45.9413 64.7956 44.3927 65.5947 43.6616 66.0153C42.5323 66.665 42.2751 66.8916 41.951 67.5214C41.4506 68.4935 41.6116 68.7906 42.6196 68.7557C44.0075 68.7077 44.9126 68.2247 44.9126 67.5324C44.9126 67.0912 45.3493 66.8712 50.8441 64.5451C52.9448 63.6558 54.723 62.8368 54.7959 62.7252C54.9699 62.4586 55.0187 62.189 55.2257 60.3491C55.4182 58.6379 55.7462 57.7417 56.426 57.0697C56.8716 56.6295 57.8942 56.0295 58.1994 56.0295C58.4585 56.0295 58.6448 56.5223 58.9122 57.9152C59.0516 58.6421 59.3794 60.2368 59.6405 61.459C59.9709 63.0064 60.1226 64.1705 60.1399 65.2921C60.1628 66.775 60.1246 67.0025 59.6596 68.1546C59.3819 68.843 58.8543 69.9283 58.4873 70.5666C57.839 71.694 57.7934 71.7357 56.8813 72.032C55.3651 72.5245 54.9566 72.7338 54.6764 73.1613C54.3139 73.7145 54.5634 74.2543 55.2446 74.3905C56.2467 74.5909 57.2095 74.5069 57.4926 74.1942C57.6403 74.031 58.0606 73.822 58.4268 73.7298C59.2793 73.5152 59.4888 73.2689 60.073 71.7951C60.5418 70.6122 61.6375 68.3904 62.9098 66.0425C63.6105 64.7492 63.6199 64.6131 63.1541 62.5223C62.8646 61.2225 62.8289 58.6407 63.0902 57.8911C63.192 57.5987 63.6479 56.9076 64.1032 56.3557C65.0918 55.1571 66.056 53.2469 66.5411 51.5264L66.8943 50.2732L67.3937 50.3541C67.681 50.4007 68.2261 50.3153 68.6773 50.1531C69.6254 49.8122 69.7192 49.8461 71.4349 51.1502C72.8715 52.242 73.6495 52.9763 74.6322 54.1675C76.2474 56.1255 78.5967 57.8295 80.3271 58.2979C81.2675 58.5524 81.3746 58.5526 82.2443 58.3002C82.9893 58.0842 83.3424 57.8564 84.0906 57.109C84.5995 56.6007 84.98 56.1492 84.9364 56.1055C84.8927 56.0619 84.5556 56.1324 84.1871 56.2624C83.3168 56.5695 82.8662 56.5638 83.4393 56.2529C84.1166 55.8854 83.9462 55.8635 82.9845 56.1944C81.833 56.5905 81.7278 56.5785 82.2571 56.1115L82.6961 55.7241L82.0501 55.9713C81.4543 56.1992 81.3603 56.1978 80.8414 55.9516C80.2279 55.6604 78.9616 54.3762 77.1584 52.2165C76.5222 51.4545 75.6773 50.6187 75.281 50.3594C74.8847 50.1002 74.6748 49.9265 74.8143 49.9735C74.9539 50.0206 75.4115 50.1091 75.8313 50.1701C76.7445 50.3031 77.2544 50.5463 78.0358 51.2215L78.6211 51.727L78.2619 51.2576C77.8323 50.6961 76.8438 49.8879 75.9295 49.3503C75.5639 49.1352 75.2646 48.9326 75.2646 48.8999C75.2646 48.7184 77.1575 49.6476 77.9243 50.2055L78.4719 50.604L77.9243 50.022C77.1628 49.2128 75.7246 48.5466 74.158 48.2775C72.5282 47.9976 71.2199 47.5239 70.2682 46.8693C69.1706 46.1142 68.4438 45.7871 66.8724 45.341C66.0858 45.1178 65.1783 44.7561 64.8557 44.537C64.5331 44.3182 64.2093 44.139 64.1362 44.139C64.063 44.139 63.5149 43.8261 62.9184 43.4437C60.4703 41.8745 59.1982 41.5036 57.2124 41.7799C56.5819 41.8675 55.8725 42.0128 55.6361 42.1026C55.3997 42.1926 54.5337 42.3672 53.7117 42.4906C52.305 42.702 52.1955 42.6982 51.852 42.428C51.5222 42.1685 51.511 42.1208 51.7374 41.9329C52.1469 41.593 52.2464 41.1254 51.9918 40.7369C51.8646 40.5429 51.642 40.3841 51.4971 40.3841C51.3521 40.3841 50.6484 40.7714 49.9332 41.2446C49.2179 41.7179 48.5463 42.1051 48.4405 42.1051C48.3347 42.1051 48.1548 41.806 48.0406 41.4402C47.9264 41.0744 47.6967 40.544 47.5301 40.2615C47.3636 39.9789 47.1976 39.4293 47.1613 39.0402C47.1027 38.4124 47.1914 38.162 47.9495 36.8161C48.4195 35.9818 49.0499 34.7362 49.3506 34.0478C49.6511 33.3594 50.0071 32.5849 50.1418 32.3268C50.4869 31.665 50.4531 30.447 50.0676 29.6505C49.8911 29.286 49.4296 28.7277 49.0421 28.4103C48.4125 27.8943 48.3485 27.7828 48.4408 27.3624C48.5799 26.729 48.2653 26.1874 47.5445 25.8197C46.8885 25.4851 46.1948 25.45 44.6418 25.6731C44.0593 25.7568 42.8787 25.8953 42.0182 25.9809C41.1577 26.0665 39.7734 26.3412 38.9421 26.5914L37.4304 27.0463L37.1801 26.3908C37.0422 26.0302 36.6841 25.4971 36.384 25.2063C36.0838 24.9154 35.8383 24.5234 35.8383 24.335C35.8383 24.1436 35.6681 23.881 35.4527 23.7398C34.9916 23.4377 34.865 23.4279 34.618 23.6749ZM42.42 33.4924C42.4119 33.9038 42.4529 33.9886 42.592 33.8495C42.7271 33.7144 42.7298 33.5737 42.6026 33.3098C42.441 32.9743 42.4299 32.9855 42.42 33.4924ZM42.1098 35.7908C41.9882 36.127 41.4522 36.8242 40.8686 37.4048C40.0547 38.2148 39.9013 38.4383 40.1289 38.4821C40.6294 38.5785 41.217 37.9774 41.8355 36.7363C42.1653 36.0745 42.41 35.4579 42.3795 35.366C42.3488 35.2742 42.2274 35.4654 42.1098 35.7908ZM42.2891 38.2972C41.8591 38.8315 41.8508 38.9761 42.2499 38.9761C42.4486 38.9761 42.5945 38.8381 42.6564 38.5916C42.8151 37.9596 42.6605 37.8357 42.2891 38.2972ZM37.442 39.1511C36.8349 39.3264 36.799 39.4903 37.3162 39.7259C37.6277 39.868 37.7633 39.8483 38.0451 39.62C38.2407 39.4617 38.3425 39.2605 38.279 39.1579C38.1513 38.9512 38.1346 38.951 37.442 39.1511ZM40.9166 39.6123C40.7675 39.8534 40.8675 39.8977 41.3514 39.8048C41.5871 39.7596 41.7413 39.6602 41.6942 39.584C41.575 39.391 41.0413 39.4104 40.9166 39.6123ZM39.5932 39.993C39.4846 40.124 39.4676 40.2277 39.5549 40.2277C39.6409 40.2277 39.7989 40.1221 39.9061 39.993C40.0147 39.862 40.0317 39.7583 39.9444 39.7583C39.8584 39.7583 39.7004 39.8639 39.5932 39.993ZM40.715 40.4186C39.6916 40.6762 39.5187 40.6828 39.1107 40.4793C38.7025 40.2757 38.626 40.2785 38.3979 40.5066C38.1613 40.743 38.1751 40.771 38.581 40.8795C38.8221 40.9441 39.3138 40.9564 39.6735 40.9072C40.1489 40.8421 40.5301 40.9072 41.0701 41.1461C41.9478 41.5344 42.3379 41.4114 42.4402 40.7141C42.5302 40.1014 42.1994 40.0448 40.715 40.4186ZM44.8407 41.362C44.971 41.7964 45.3386 42.2006 45.4776 42.0618C45.6436 41.8956 45.2089 41.0099 44.9613 41.0099C44.7997 41.0099 44.7652 41.1105 44.8407 41.362ZM26.8423 42.7309C26.5924 42.8383 26.6494 42.8677 27.1253 42.8764C27.4851 42.883 27.6829 42.8254 27.6245 42.7309C27.5103 42.5462 27.2722 42.5462 26.8423 42.7309ZM23.0092 44.5209C23.0092 44.655 23.0796 44.7648 23.1656 44.7648C23.2517 44.7648 23.3221 44.6986 23.3221 44.6176C23.3221 44.5366 23.2517 44.4269 23.1656 44.3737C23.0796 44.3205 23.0092 44.3868 23.0092 44.5209Z" fill="#579C4C"/>
<path d="M77.6089 46.6782L73.3888 31.9293H76.7951L79.2365 42.1772H79.3589L82.0523 31.9293H84.9689L87.6551 42.1988H87.7848L90.2261 31.9293H93.6325L89.4123 46.6782H86.3733L83.5646 37.0353H83.4494L80.648 46.6782H77.6089ZM97.2099 46.8871C96.5041 46.8871 95.8752 46.7646 95.3231 46.5198C94.7709 46.2701 94.334 45.9028 94.0124 45.4179C93.6955 44.9282 93.5371 44.3185 93.5371 43.5887C93.5371 42.9742 93.6499 42.4581 93.8755 42.0404C94.1012 41.6227 94.4085 41.2866 94.7973 41.0322C95.1862 40.7777 95.6279 40.5857 96.1224 40.456C96.6217 40.3264 97.1451 40.2352 97.6924 40.1824C98.3357 40.1152 98.8542 40.0527 99.2479 39.9951C99.6416 39.9327 99.9273 39.8415 100.105 39.7215C100.283 39.6014 100.371 39.4238 100.371 39.1886V39.1453C100.371 38.6892 100.227 38.3364 99.9393 38.0867C99.656 37.8371 99.2527 37.7122 98.7294 37.7122C98.1773 37.7122 97.738 37.8347 97.4115 38.0795C97.085 38.3196 96.869 38.622 96.7634 38.9869L93.9259 38.7565C94.07 38.0843 94.3532 37.5034 94.7757 37.0137C95.1982 36.5192 95.7431 36.1399 96.4105 35.8758C97.0826 35.607 97.8604 35.4725 98.7438 35.4725C99.3584 35.4725 99.9465 35.5445 100.508 35.6886C101.075 35.8326 101.576 36.0559 102.013 36.3583C102.455 36.6608 102.803 37.0497 103.058 37.525C103.312 37.9955 103.439 38.5596 103.439 39.2174V46.6782H100.53V45.1443H100.443C100.266 45.49 100.028 45.7948 99.7304 46.0589C99.4328 46.3181 99.0751 46.5222 98.6574 46.671C98.2397 46.8151 97.7572 46.8871 97.2099 46.8871ZM98.0885 44.7698C98.5398 44.7698 98.9383 44.681 99.2839 44.5033C99.6296 44.3209 99.9009 44.076 100.098 43.7688C100.295 43.4615 100.393 43.1134 100.393 42.7245V41.5507C100.297 41.6131 100.165 41.6707 99.9969 41.7235C99.8337 41.7715 99.6488 41.8171 99.4424 41.8603C99.2359 41.8988 99.0295 41.9348 98.823 41.9684C98.6166 41.9972 98.4293 42.0236 98.2613 42.0476C97.9012 42.1004 97.5868 42.1844 97.3179 42.2996C97.049 42.4149 96.8402 42.5709 96.6914 42.7678C96.5425 42.9598 96.4681 43.1998 96.4681 43.4879C96.4681 43.9056 96.6193 44.2249 96.9218 44.4457C97.2291 44.6618 97.618 44.7698 98.0885 44.7698ZM111.703 35.6166V37.9211H105.042V35.6166H111.703ZM106.554 32.9664H109.622V43.2791C109.622 43.5623 109.665 43.7832 109.751 43.9416C109.838 44.0952 109.958 44.2033 110.112 44.2657C110.27 44.3281 110.452 44.3593 110.659 44.3593C110.803 44.3593 110.947 44.3473 111.091 44.3233C111.235 44.2945 111.345 44.2729 111.422 44.2585L111.905 46.5414C111.751 46.5894 111.535 46.6446 111.257 46.707C110.978 46.7742 110.64 46.8151 110.241 46.8295C109.502 46.8583 108.854 46.7598 108.297 46.5342C107.745 46.3085 107.315 45.9581 107.008 45.4828C106.7 45.0075 106.549 44.4073 106.554 43.6824V32.9664ZM118.581 46.8943C117.448 46.8943 116.473 46.6542 115.657 46.1741C114.845 45.6892 114.221 45.0171 113.784 44.1577C113.352 43.2983 113.136 42.3092 113.136 41.1906C113.136 40.0575 113.355 39.0637 113.792 38.2091C114.233 37.3497 114.86 36.68 115.671 36.1999C116.483 35.715 117.448 35.4725 118.566 35.4725C119.531 35.4725 120.376 35.6478 121.101 35.9982C121.826 36.3487 122.4 36.8408 122.822 37.4746C123.245 38.1083 123.478 38.8525 123.521 39.7071H120.626C120.544 39.1549 120.328 38.7108 119.978 38.3748C119.632 38.0339 119.178 37.8635 118.617 37.8635C118.141 37.8635 117.726 37.9931 117.371 38.2523C117.02 38.5068 116.747 38.8789 116.55 39.3686C116.353 39.8583 116.255 40.4512 116.255 41.1474C116.255 41.8531 116.351 42.4533 116.543 42.9478C116.739 43.4423 117.015 43.8192 117.371 44.0784C117.726 44.3377 118.141 44.4673 118.617 44.4673C118.967 44.4673 119.282 44.3953 119.56 44.2513C119.843 44.1072 120.076 43.8984 120.259 43.6247C120.446 43.3463 120.568 43.0126 120.626 42.6237H123.521C123.473 43.4687 123.242 44.2129 122.83 44.8562C122.421 45.4948 121.857 45.9941 121.137 46.3542C120.417 46.7142 119.565 46.8943 118.581 46.8943ZM128.553 40.2832V46.6782H125.485V31.9293H128.467V37.5682H128.596C128.846 36.9152 129.249 36.4039 129.806 36.0342C130.363 35.6598 131.062 35.4725 131.902 35.4725C132.67 35.4725 133.34 35.6406 133.911 35.9766C134.487 36.3079 134.934 36.7856 135.251 37.4098C135.572 38.0291 135.731 38.7709 135.726 39.6351V46.6782H132.658V40.1824C132.663 39.5006 132.49 38.9701 132.139 38.5908C131.794 38.2115 131.309 38.0219 130.685 38.0219C130.267 38.0219 129.897 38.1107 129.576 38.2884C129.259 38.466 129.009 38.7252 128.827 39.0661C128.649 39.4022 128.558 39.8079 128.553 40.2832ZM74.289 49.9293H78.1346L82.1963 59.8387H82.3692L86.4309 49.9293H90.2765V64.6782H87.2519V55.0785H87.1294L83.3126 64.6062H81.2529L77.4361 55.0425H77.3136V64.6782H74.289V49.9293ZM97.8292 64.8943C96.6914 64.8943 95.7119 64.6638 94.891 64.2029C94.0748 63.7372 93.4458 63.0795 93.0041 62.2297C92.5624 61.3751 92.3416 60.3645 92.3416 59.1978C92.3416 58.0599 92.5624 57.0613 93.0041 56.2019C93.4458 55.3425 94.0676 54.6728 94.8694 54.1927C95.6759 53.7126 96.6217 53.4725 97.7068 53.4725C98.4365 53.4725 99.1159 53.5902 99.7448 53.8254C100.379 54.0559 100.931 54.4039 101.401 54.8696C101.877 55.3353 102.246 55.9211 102.51 56.6268C102.774 57.3278 102.906 58.1488 102.906 59.0898V59.9324H93.5659V58.0311H100.019C100.019 57.5894 99.9225 57.1982 99.7304 56.8573C99.5384 56.5164 99.2719 56.2499 98.9311 56.0579C98.595 55.8611 98.2037 55.7626 97.7572 55.7626C97.2915 55.7626 96.8786 55.8707 96.5185 56.0867C96.1632 56.298 95.8848 56.5836 95.6831 56.9437C95.4815 57.299 95.3783 57.6951 95.3735 58.132V59.9396C95.3735 60.4869 95.4743 60.9598 95.6759 61.3583C95.8824 61.7568 96.1728 62.064 96.5473 62.2801C96.9218 62.4961 97.3659 62.6042 97.8796 62.6042C98.2205 62.6042 98.5326 62.5561 98.8158 62.4601C99.0991 62.3641 99.3415 62.2201 99.5432 62.028C99.7448 61.836 99.8985 61.6007 100.004 61.3223L102.842 61.5095C102.697 62.1913 102.402 62.7866 101.956 63.2955C101.514 63.7996 100.943 64.1933 100.242 64.4766C99.5456 64.755 98.7414 64.8943 97.8292 64.8943ZM104.966 64.6782V49.9293H110.785C111.899 49.9293 112.849 50.1286 113.637 50.5271C114.429 50.9208 115.031 51.4801 115.444 52.205C115.862 52.9252 116.071 53.7726 116.071 54.7472C116.071 55.7266 115.86 56.5692 115.437 57.275C115.015 57.9759 114.403 58.5136 113.601 58.8881C112.804 59.2626 111.839 59.4499 110.706 59.4499H106.81V56.9437H110.202C110.797 56.9437 111.291 56.8621 111.685 56.6988C112.079 56.5356 112.372 56.2908 112.564 55.9643C112.761 55.6378 112.859 55.2321 112.859 54.7472C112.859 54.2575 112.761 53.8446 112.564 53.5085C112.372 53.1725 112.076 52.918 111.678 52.7452C111.284 52.5675 110.787 52.4787 110.187 52.4787H108.084V64.6782H104.966ZM112.931 57.9663L116.597 64.6782H113.154L109.568 57.9663H112.931ZM118.217 64.6782V53.6166H121.285V64.6782H118.217ZM119.758 52.1906C119.302 52.1906 118.911 52.0394 118.584 51.7369C118.263 51.4297 118.102 51.0624 118.102 50.6351C118.102 50.2126 118.263 49.8501 118.584 49.5477C118.911 49.2404 119.302 49.0867 119.758 49.0867C120.214 49.0867 120.603 49.2404 120.925 49.5477C121.251 49.8501 121.414 50.2126 121.414 50.6351C121.414 51.0624 121.251 51.4297 120.925 51.7369C120.603 52.0394 120.214 52.1906 119.758 52.1906ZM127.818 64.8583C126.978 64.8583 126.217 64.6422 125.536 64.2101C124.859 63.7732 124.321 63.1323 123.922 62.2873C123.529 61.4375 123.332 60.3957 123.332 59.1618C123.332 57.8943 123.536 56.8405 123.944 56.0003C124.352 55.1553 124.895 54.524 125.572 54.1063C126.253 53.6838 127 53.4725 127.811 53.4725C128.431 53.4725 128.947 53.5781 129.36 53.7894C129.777 53.9958 130.113 54.2551 130.368 54.5672C130.627 54.8744 130.824 55.1769 130.958 55.4746H131.052V49.9293H134.113V64.6782H131.088V62.9066H130.958C130.814 63.2139 130.61 63.5188 130.346 63.8212C130.087 64.1189 129.749 64.3662 129.331 64.563C128.918 64.7598 128.414 64.8583 127.818 64.8583ZM128.791 62.4169C129.285 62.4169 129.703 62.2825 130.044 62.0136C130.389 61.74 130.654 61.3583 130.836 60.8686C131.023 60.3789 131.117 59.8051 131.117 59.1474C131.117 58.4896 131.026 57.9183 130.843 57.4334C130.661 56.9485 130.397 56.574 130.051 56.31C129.705 56.0459 129.285 55.9139 128.791 55.9139C128.287 55.9139 127.862 56.0507 127.516 56.3244C127.17 56.598 126.909 56.9773 126.731 57.4622C126.553 57.9471 126.465 58.5088 126.465 59.1474C126.465 59.7907 126.553 60.3597 126.731 60.8542C126.913 61.3439 127.175 61.728 127.516 62.0064C127.862 62.2801 128.287 62.4169 128.791 62.4169ZM141.676 64.8943C140.538 64.8943 139.559 64.6638 138.738 64.2029C137.922 63.7372 137.293 63.0795 136.851 62.2297C136.409 61.3751 136.189 60.3645 136.189 59.1978C136.189 58.0599 136.409 57.0613 136.851 56.2019C137.293 55.3425 137.915 54.6728 138.716 54.1927C139.523 53.7126 140.469 53.4725 141.554 53.4725C142.284 53.4725 142.963 53.5902 143.592 53.8254C144.226 54.0559 144.778 54.4039 145.248 54.8696C145.723 55.3353 146.093 55.9211 146.357 56.6268C146.621 57.3278 146.753 58.1488 146.753 59.0898V59.9324H137.413V58.0311H143.865C143.865 57.5894 143.769 57.1982 143.577 56.8573C143.385 56.5164 143.119 56.2499 142.778 56.0579C142.442 55.8611 142.051 55.7626 141.604 55.7626C141.138 55.7626 140.726 55.8707 140.365 56.0867C140.01 56.298 139.732 56.5836 139.53 56.9437C139.328 57.299 139.225 57.6951 139.22 58.132V59.9396C139.22 60.4869 139.321 60.9598 139.523 61.3583C139.729 61.7568 140.02 62.064 140.394 62.2801C140.769 62.4961 141.213 62.6042 141.727 62.6042C142.067 62.6042 142.38 62.5561 142.663 62.4601C142.946 62.3641 143.189 62.2201 143.39 62.028C143.592 61.836 143.745 61.6007 143.851 61.3223L146.689 61.5095C146.544 62.1913 146.249 62.7866 145.803 63.2955C145.361 63.7996 144.79 64.1933 144.089 64.4766C143.393 64.755 142.588 64.8943 141.676 64.8943Z" fill="black"/>
</svg>
